G04 #@! TF.FileFunction,Soldermask,Top*
%FSLAX46Y46*%
G04 Gerber Fmt 4.6, Leading zero omitted, Abs format (unit mm)*
G04 Created by KiCad (PCBNEW 4.0.1-3.201512221402+6198~38~ubuntu14.04.1-stable) date Fri 13 May 2016 10:50:05 PM PDT*
%MOMM*%
G01*
G04 APERTURE LIST*
%ADD10C,0.100000*%
%ADD11C,0.762000*%
%ADD12C,2.127200*%
%ADD13R,2.127200X2.127200*%
%ADD14O,2.127200X2.127200*%
G04 APERTURE END LIST*
D10*
D11*
X141478000Y-78740000D02*
X136398000Y-78740000D01*
X146558000Y-101600000D02*
X151638000Y-101600000D01*
X136398000Y-78740000D02*
X136398000Y-76200000D01*
X136398000Y-81280000D02*
X141478000Y-81280000D01*
X136398000Y-83820000D02*
X141478000Y-83820000D01*
X136398000Y-86360000D02*
X138938000Y-86360000D01*
X141478000Y-86360000D02*
X144018000Y-86360000D01*
X141478000Y-88900000D02*
X144018000Y-88900000D01*
X136398000Y-88900000D02*
X138938000Y-88900000D01*
X136398000Y-91440000D02*
X138938000Y-91440000D01*
X136398000Y-93980000D02*
X138938000Y-93980000D01*
X141478000Y-91440000D02*
X144018000Y-91440000D01*
X141478000Y-93980000D02*
X144018000Y-93980000D01*
X141478000Y-96520000D02*
X144018000Y-96520000D01*
X141478000Y-99060000D02*
X144018000Y-99060000D01*
X136398000Y-96520000D02*
X138938000Y-96520000D01*
X136398000Y-99060000D02*
X138938000Y-99060000D01*
X138938000Y-101600000D02*
X136398000Y-101600000D01*
X144018000Y-101600000D02*
X141478000Y-101600000D01*
X141478000Y-104140000D02*
X144018000Y-104140000D01*
X136398000Y-104140000D02*
X138938000Y-104140000D01*
X138938000Y-106680000D02*
X136398000Y-106680000D01*
X144018000Y-106680000D02*
X141478000Y-106680000D01*
X141478000Y-109220000D02*
X144018000Y-109220000D01*
X136398000Y-109220000D02*
X138938000Y-109220000D01*
X141478000Y-111760000D02*
X136398000Y-111760000D01*
X136398000Y-114300000D02*
X141478000Y-114300000D01*
X141478000Y-116840000D02*
X136398000Y-116840000D01*
X144018000Y-116840000D02*
X144018000Y-111760000D01*
X146558000Y-116840000D02*
X151638000Y-116840000D01*
X151638000Y-114300000D02*
X146558000Y-114300000D01*
X146558000Y-111760000D02*
X151638000Y-111760000D01*
X151638000Y-109220000D02*
X146558000Y-109220000D01*
X146558000Y-106680000D02*
X151638000Y-106680000D01*
X151638000Y-104140000D02*
X146558000Y-104140000D01*
X146558000Y-101600000D02*
X151638000Y-101600000D01*
X151638000Y-99060000D02*
X146558000Y-99060000D01*
X146558000Y-96520000D02*
X151638000Y-96520000D01*
X146558000Y-93980000D02*
X151638000Y-93980000D01*
X151638000Y-91440000D02*
X146558000Y-91440000D01*
X146558000Y-88900000D02*
X151638000Y-88900000D01*
X151638000Y-86360000D02*
X146558000Y-86360000D01*
X146558000Y-83820000D02*
X151638000Y-83820000D01*
X146558000Y-81280000D02*
X151638000Y-81280000D01*
X144018000Y-78740000D02*
X144018000Y-83820000D01*
X151638000Y-78740000D02*
X146558000Y-78740000D01*
X151638000Y-76200000D02*
X151638000Y-78740000D01*
D12*
X144018000Y-81280000D03*
X144018000Y-78740000D03*
X144018000Y-83820000D03*
X144018000Y-91440000D03*
X144018000Y-93980000D03*
X144018000Y-99060000D03*
X144018000Y-96520000D03*
X144018000Y-86360000D03*
X144018000Y-88900000D03*
X144018000Y-111760000D03*
X144018000Y-109220000D03*
X144018000Y-101600000D03*
X144018000Y-104140000D03*
X144018000Y-114300000D03*
X144018000Y-116840000D03*
X144018000Y-106680000D03*
X141478000Y-116840000D03*
X141478000Y-114300000D03*
X146558000Y-116840000D03*
X146558000Y-114300000D03*
X151638000Y-116840000D03*
X149098000Y-116840000D03*
X138938000Y-116840000D03*
X136398000Y-116840000D03*
X151638000Y-114300000D03*
X149098000Y-114300000D03*
X138938000Y-114300000D03*
X136398000Y-114300000D03*
X151638000Y-111760000D03*
X149098000Y-111760000D03*
X146558000Y-111760000D03*
X141478000Y-111760000D03*
X138938000Y-111760000D03*
X136398000Y-111760000D03*
X151638000Y-109220000D03*
X149098000Y-109220000D03*
X146558000Y-109220000D03*
X141478000Y-109220000D03*
X138938000Y-109220000D03*
X136398000Y-109220000D03*
X151638000Y-106680000D03*
X149098000Y-106680000D03*
X146558000Y-106680000D03*
X141478000Y-106680000D03*
X138938000Y-106680000D03*
X136398000Y-106680000D03*
X151638000Y-104140000D03*
X149098000Y-104140000D03*
X146558000Y-104140000D03*
X141478000Y-104140000D03*
X138938000Y-104140000D03*
X136398000Y-104140000D03*
X151638000Y-101600000D03*
X149098000Y-101600000D03*
X146558000Y-101600000D03*
X141478000Y-101600000D03*
X138938000Y-101600000D03*
X136398000Y-101600000D03*
X151638000Y-99060000D03*
X149098000Y-99060000D03*
X146558000Y-99060000D03*
X141478000Y-99060000D03*
X138938000Y-99060000D03*
X136398000Y-99060000D03*
X151638000Y-96520000D03*
X149098000Y-96520000D03*
X146558000Y-96520000D03*
X141478000Y-96520000D03*
X138938000Y-96520000D03*
X136398000Y-96520000D03*
X151638000Y-93980000D03*
X149098000Y-93980000D03*
X146558000Y-93980000D03*
X141478000Y-93980000D03*
X138938000Y-93980000D03*
X136398000Y-93980000D03*
X151638000Y-91440000D03*
X149098000Y-91440000D03*
X146558000Y-91440000D03*
X141478000Y-91440000D03*
X138938000Y-91440000D03*
X136398000Y-91440000D03*
X151638000Y-88900000D03*
X149098000Y-88900000D03*
X146558000Y-88900000D03*
X141478000Y-88900000D03*
X138938000Y-88900000D03*
X136398000Y-88900000D03*
X151638000Y-86360000D03*
X149098000Y-86360000D03*
X146558000Y-86360000D03*
X141478000Y-86360000D03*
X138938000Y-86360000D03*
X136398000Y-86360000D03*
X151638000Y-83820000D03*
X149098000Y-83820000D03*
X146558000Y-83820000D03*
X141478000Y-83820000D03*
X138938000Y-83820000D03*
X136398000Y-83820000D03*
X151638000Y-81280000D03*
X149098000Y-81280000D03*
X146558000Y-81280000D03*
X141478000Y-81280000D03*
X138938000Y-81280000D03*
X136398000Y-81280000D03*
X151638000Y-78740000D03*
X149098000Y-78740000D03*
X146558000Y-78740000D03*
X141478000Y-78740000D03*
X138938000Y-78740000D03*
X136398000Y-78740000D03*
X151638000Y-76200000D03*
X136398000Y-76200000D03*
D13*
X124968000Y-71120000D03*
D14*
X127508000Y-71120000D03*
X124968000Y-73660000D03*
X127508000Y-73660000D03*
X124968000Y-76200000D03*
X127508000Y-76200000D03*
X124968000Y-78740000D03*
X127508000Y-78740000D03*
X124968000Y-81280000D03*
X127508000Y-81280000D03*
X124968000Y-83820000D03*
X127508000Y-83820000D03*
X124968000Y-86360000D03*
X127508000Y-86360000D03*
X124968000Y-88900000D03*
X127508000Y-88900000D03*
X124968000Y-91440000D03*
X127508000Y-91440000D03*
X124968000Y-93980000D03*
X127508000Y-93980000D03*
X124968000Y-96520000D03*
X127508000Y-96520000D03*
X124968000Y-99060000D03*
X127508000Y-99060000D03*
X124968000Y-101600000D03*
X127508000Y-101600000D03*
X124968000Y-104140000D03*
X127508000Y-104140000D03*
X124968000Y-106680000D03*
X127508000Y-106680000D03*
X124968000Y-109220000D03*
X127508000Y-109220000D03*
X124968000Y-111760000D03*
X127508000Y-111760000D03*
X124968000Y-114300000D03*
X127508000Y-114300000D03*
X124968000Y-116840000D03*
X127508000Y-116840000D03*
X124968000Y-119380000D03*
X127508000Y-119380000D03*
D13*
X160528000Y-71120000D03*
D14*
X163068000Y-71120000D03*
X160528000Y-73660000D03*
X163068000Y-73660000D03*
X160528000Y-76200000D03*
X163068000Y-76200000D03*
X160528000Y-78740000D03*
X163068000Y-78740000D03*
X160528000Y-81280000D03*
X163068000Y-81280000D03*
X160528000Y-83820000D03*
X163068000Y-83820000D03*
X160528000Y-86360000D03*
X163068000Y-86360000D03*
X160528000Y-88900000D03*
X163068000Y-88900000D03*
X160528000Y-91440000D03*
X163068000Y-91440000D03*
X160528000Y-93980000D03*
X163068000Y-93980000D03*
X160528000Y-96520000D03*
X163068000Y-96520000D03*
X160528000Y-99060000D03*
X163068000Y-99060000D03*
X160528000Y-101600000D03*
X163068000Y-101600000D03*
X160528000Y-104140000D03*
X163068000Y-104140000D03*
X160528000Y-106680000D03*
X163068000Y-106680000D03*
X160528000Y-109220000D03*
X163068000Y-109220000D03*
X160528000Y-111760000D03*
X163068000Y-111760000D03*
X160528000Y-114300000D03*
X163068000Y-114300000D03*
X160528000Y-116840000D03*
X163068000Y-116840000D03*
X160528000Y-119380000D03*
X163068000Y-119380000D03*
D13*
X155448000Y-71120000D03*
D12*
X155448000Y-73660000D03*
X155448000Y-76200000D03*
X155448000Y-78740000D03*
X155448000Y-81280000D03*
X155448000Y-83820000D03*
X155448000Y-86360000D03*
X155448000Y-88900000D03*
X155448000Y-91440000D03*
X155448000Y-93980000D03*
X155448000Y-96520000D03*
X155448000Y-99060000D03*
X155448000Y-101600000D03*
X155448000Y-104140000D03*
X155448000Y-106680000D03*
X155448000Y-109220000D03*
X155448000Y-111760000D03*
X155448000Y-114300000D03*
X155448000Y-116840000D03*
X155448000Y-119380000D03*
X157988000Y-71120000D03*
X157988000Y-73660000D03*
X157988000Y-76200000D03*
X157988000Y-78740000D03*
X157988000Y-81280000D03*
X157988000Y-83820000D03*
X157988000Y-86360000D03*
X157988000Y-88900000D03*
X157988000Y-91440000D03*
X157988000Y-93980000D03*
X157988000Y-96520000D03*
X157988000Y-99060000D03*
X157988000Y-101600000D03*
X157988000Y-104140000D03*
X157988000Y-106680000D03*
X157988000Y-109220000D03*
X157988000Y-111760000D03*
X157988000Y-114300000D03*
X157988000Y-116840000D03*
X157988000Y-119380000D03*
X132715000Y-71035001D03*
X132715000Y-73575001D03*
X132715000Y-76115001D03*
X132715000Y-78655001D03*
X132715000Y-81195001D03*
X132715000Y-83735001D03*
X132715000Y-86275001D03*
X132715000Y-88815001D03*
X132715000Y-91355001D03*
X132715000Y-93895001D03*
X132715000Y-96435001D03*
X132715000Y-98975001D03*
X132715000Y-101515001D03*
X132715000Y-104055001D03*
X132715000Y-106595001D03*
X132715000Y-109135001D03*
X132715000Y-111675001D03*
X132715000Y-114215001D03*
X132715000Y-116755001D03*
X132715000Y-119295001D03*
D13*
X130175000Y-71035001D03*
D12*
X130175000Y-73575001D03*
X130175000Y-76115001D03*
X130175000Y-78655001D03*
X130175000Y-81195001D03*
X130175000Y-83735001D03*
X130175000Y-86275001D03*
X130175000Y-88815001D03*
X130175000Y-91355001D03*
X130175000Y-93895001D03*
X130175000Y-96435001D03*
X130175000Y-98975001D03*
X130175000Y-101515001D03*
X130175000Y-104055001D03*
X130175000Y-106595001D03*
X130175000Y-109135001D03*
X130175000Y-111675001D03*
X130175000Y-114215001D03*
X130175000Y-116755001D03*
X130175000Y-119295001D03*
M02*
