M48
;DRILL file {KiCad 4.0.1-3.201512221402+6198~38~ubuntu14.04.1-stable} date Fri 13 May 2016 10:50:06 PM PDT
;FORMAT={-:-/ absolute / inch / decimal}
FMAT,2
INCH,TZ
T1C0.040
%
G90
G05
M72
T1
X4.92Y-2.8
X4.92Y-2.9
X4.92Y-3.
X4.92Y-3.1
X4.92Y-3.2
X4.92Y-3.3
X4.92Y-3.4
X4.92Y-3.5
X4.92Y-3.6
X4.92Y-3.7
X4.92Y-3.8
X4.92Y-3.9
X4.92Y-4.
X4.92Y-4.1
X4.92Y-4.2
X4.92Y-4.3
X4.92Y-4.4
X4.92Y-4.5
X4.92Y-4.6
X4.92Y-4.7
X5.02Y-2.8
X5.02Y-2.9
X5.02Y-3.
X5.02Y-3.1
X5.02Y-3.2
X5.02Y-3.3
X5.02Y-3.4
X5.02Y-3.5
X5.02Y-3.6
X5.02Y-3.7
X5.02Y-3.8
X5.02Y-3.9
X5.02Y-4.
X5.02Y-4.1
X5.02Y-4.2
X5.02Y-4.3
X5.02Y-4.4
X5.02Y-4.5
X5.02Y-4.6
X5.02Y-4.7
X5.125Y-2.7967
X5.125Y-2.8967
X5.125Y-2.9967
X5.125Y-3.0967
X5.125Y-3.1967
X5.125Y-3.2967
X5.125Y-3.3967
X5.125Y-3.4967
X5.125Y-3.5967
X5.125Y-3.6967
X5.125Y-3.7967
X5.125Y-3.8967
X5.125Y-3.9967
X5.125Y-4.0967
X5.125Y-4.1967
X5.125Y-4.2967
X5.125Y-4.3967
X5.125Y-4.4967
X5.125Y-4.5967
X5.125Y-4.6967
X5.225Y-2.7967
X5.225Y-2.8967
X5.225Y-2.9967
X5.225Y-3.0967
X5.225Y-3.1967
X5.225Y-3.2967
X5.225Y-3.3967
X5.225Y-3.4967
X5.225Y-3.5967
X5.225Y-3.6967
X5.225Y-3.7967
X5.225Y-3.8967
X5.225Y-3.9967
X5.225Y-4.0967
X5.225Y-4.1967
X5.225Y-4.2967
X5.225Y-4.3967
X5.225Y-4.4967
X5.225Y-4.5967
X5.225Y-4.6967
X5.37Y-3.
X5.37Y-3.1
X5.37Y-3.2
X5.37Y-3.3
X5.37Y-3.4
X5.37Y-3.5
X5.37Y-3.6
X5.37Y-3.7
X5.37Y-3.8
X5.37Y-3.9
X5.37Y-4.
X5.37Y-4.1
X5.37Y-4.2
X5.37Y-4.3
X5.37Y-4.4
X5.37Y-4.5
X5.37Y-4.6
X5.47Y-3.1
X5.47Y-3.2
X5.47Y-3.3
X5.47Y-3.4
X5.47Y-3.5
X5.47Y-3.6
X5.47Y-3.7
X5.47Y-3.8
X5.47Y-3.9
X5.47Y-4.
X5.47Y-4.1
X5.47Y-4.2
X5.47Y-4.3
X5.47Y-4.4
X5.47Y-4.5
X5.47Y-4.6
X5.57Y-3.1
X5.57Y-3.2
X5.57Y-3.3
X5.57Y-3.4
X5.57Y-3.5
X5.57Y-3.6
X5.57Y-3.7
X5.57Y-3.8
X5.57Y-3.9
X5.57Y-4.
X5.57Y-4.1
X5.57Y-4.2
X5.57Y-4.3
X5.57Y-4.4
X5.57Y-4.5
X5.57Y-4.6
X5.67Y-3.1
X5.67Y-3.2
X5.67Y-3.3
X5.67Y-3.4
X5.67Y-3.5
X5.67Y-3.6
X5.67Y-3.7
X5.67Y-3.8
X5.67Y-3.9
X5.67Y-4.
X5.67Y-4.1
X5.67Y-4.2
X5.67Y-4.3
X5.67Y-4.4
X5.67Y-4.5
X5.67Y-4.6
X5.77Y-3.1
X5.77Y-3.2
X5.77Y-3.3
X5.77Y-3.4
X5.77Y-3.5
X5.77Y-3.6
X5.77Y-3.7
X5.77Y-3.8
X5.77Y-3.9
X5.77Y-4.
X5.77Y-4.1
X5.77Y-4.2
X5.77Y-4.3
X5.77Y-4.4
X5.77Y-4.5
X5.77Y-4.6
X5.87Y-3.1
X5.87Y-3.2
X5.87Y-3.3
X5.87Y-3.4
X5.87Y-3.5
X5.87Y-3.6
X5.87Y-3.7
X5.87Y-3.8
X5.87Y-3.9
X5.87Y-4.
X5.87Y-4.1
X5.87Y-4.2
X5.87Y-4.3
X5.87Y-4.4
X5.87Y-4.5
X5.87Y-4.6
X5.97Y-3.
X5.97Y-3.1
X5.97Y-3.2
X5.97Y-3.3
X5.97Y-3.4
X5.97Y-3.5
X5.97Y-3.6
X5.97Y-3.7
X5.97Y-3.8
X5.97Y-3.9
X5.97Y-4.
X5.97Y-4.1
X5.97Y-4.2
X5.97Y-4.3
X5.97Y-4.4
X5.97Y-4.5
X5.97Y-4.6
X6.12Y-2.8
X6.12Y-2.9
X6.12Y-3.
X6.12Y-3.1
X6.12Y-3.2
X6.12Y-3.3
X6.12Y-3.4
X6.12Y-3.5
X6.12Y-3.6
X6.12Y-3.7
X6.12Y-3.8
X6.12Y-3.9
X6.12Y-4.
X6.12Y-4.1
X6.12Y-4.2
X6.12Y-4.3
X6.12Y-4.4
X6.12Y-4.5
X6.12Y-4.6
X6.12Y-4.7
X6.22Y-2.8
X6.22Y-2.9
X6.22Y-3.
X6.22Y-3.1
X6.22Y-3.2
X6.22Y-3.3
X6.22Y-3.4
X6.22Y-3.5
X6.22Y-3.6
X6.22Y-3.7
X6.22Y-3.8
X6.22Y-3.9
X6.22Y-4.
X6.22Y-4.1
X6.22Y-4.2
X6.22Y-4.3
X6.22Y-4.4
X6.22Y-4.5
X6.22Y-4.6
X6.22Y-4.7
X6.32Y-2.8
X6.32Y-2.9
X6.32Y-3.
X6.32Y-3.1
X6.32Y-3.2
X6.32Y-3.3
X6.32Y-3.4
X6.32Y-3.5
X6.32Y-3.6
X6.32Y-3.7
X6.32Y-3.8
X6.32Y-3.9
X6.32Y-4.
X6.32Y-4.1
X6.32Y-4.2
X6.32Y-4.3
X6.32Y-4.4
X6.32Y-4.5
X6.32Y-4.6
X6.32Y-4.7
X6.42Y-2.8
X6.42Y-2.9
X6.42Y-3.
X6.42Y-3.1
X6.42Y-3.2
X6.42Y-3.3
X6.42Y-3.4
X6.42Y-3.5
X6.42Y-3.6
X6.42Y-3.7
X6.42Y-3.8
X6.42Y-3.9
X6.42Y-4.
X6.42Y-4.1
X6.42Y-4.2
X6.42Y-4.3
X6.42Y-4.4
X6.42Y-4.5
X6.42Y-4.6
X6.42Y-4.7
T0
M30
