G04 #@! TF.FileFunction,Copper,L1,Top,Signal*
%FSLAX46Y46*%
G04 Gerber Fmt 4.6, Leading zero omitted, Abs format (unit mm)*
G04 Created by KiCad (PCBNEW 4.0.1-3.201512221402+6198~38~ubuntu14.04.1-stable) date Fri 13 May 2016 10:50:05 PM PDT*
%MOMM*%
G01*
G04 APERTURE LIST*
%ADD10C,0.100000*%
%ADD11C,1.727200*%
%ADD12R,1.727200X1.727200*%
%ADD13O,1.727200X1.727200*%
%ADD14C,0.762000*%
%ADD15C,0.152400*%
G04 APERTURE END LIST*
D10*
D11*
X144018000Y-81280000D03*
X144018000Y-78740000D03*
X144018000Y-83820000D03*
X144018000Y-91440000D03*
X144018000Y-93980000D03*
X144018000Y-99060000D03*
X144018000Y-96520000D03*
X144018000Y-86360000D03*
X144018000Y-88900000D03*
X144018000Y-111760000D03*
X144018000Y-109220000D03*
X144018000Y-101600000D03*
X144018000Y-104140000D03*
X144018000Y-114300000D03*
X144018000Y-116840000D03*
X144018000Y-106680000D03*
X141478000Y-116840000D03*
X141478000Y-114300000D03*
X146558000Y-116840000D03*
X146558000Y-114300000D03*
X151638000Y-116840000D03*
X149098000Y-116840000D03*
X138938000Y-116840000D03*
X136398000Y-116840000D03*
X151638000Y-114300000D03*
X149098000Y-114300000D03*
X138938000Y-114300000D03*
X136398000Y-114300000D03*
X151638000Y-111760000D03*
X149098000Y-111760000D03*
X146558000Y-111760000D03*
X141478000Y-111760000D03*
X138938000Y-111760000D03*
X136398000Y-111760000D03*
X151638000Y-109220000D03*
X149098000Y-109220000D03*
X146558000Y-109220000D03*
X141478000Y-109220000D03*
X138938000Y-109220000D03*
X136398000Y-109220000D03*
X151638000Y-106680000D03*
X149098000Y-106680000D03*
X146558000Y-106680000D03*
X141478000Y-106680000D03*
X138938000Y-106680000D03*
X136398000Y-106680000D03*
X151638000Y-104140000D03*
X149098000Y-104140000D03*
X146558000Y-104140000D03*
X141478000Y-104140000D03*
X138938000Y-104140000D03*
X136398000Y-104140000D03*
X151638000Y-101600000D03*
X149098000Y-101600000D03*
X146558000Y-101600000D03*
X141478000Y-101600000D03*
X138938000Y-101600000D03*
X136398000Y-101600000D03*
X151638000Y-99060000D03*
X149098000Y-99060000D03*
X146558000Y-99060000D03*
X141478000Y-99060000D03*
X138938000Y-99060000D03*
X136398000Y-99060000D03*
X151638000Y-96520000D03*
X149098000Y-96520000D03*
X146558000Y-96520000D03*
X141478000Y-96520000D03*
X138938000Y-96520000D03*
X136398000Y-96520000D03*
X151638000Y-93980000D03*
X149098000Y-93980000D03*
X146558000Y-93980000D03*
X141478000Y-93980000D03*
X138938000Y-93980000D03*
X136398000Y-93980000D03*
X151638000Y-91440000D03*
X149098000Y-91440000D03*
X146558000Y-91440000D03*
X141478000Y-91440000D03*
X138938000Y-91440000D03*
X136398000Y-91440000D03*
X151638000Y-88900000D03*
X149098000Y-88900000D03*
X146558000Y-88900000D03*
X141478000Y-88900000D03*
X138938000Y-88900000D03*
X136398000Y-88900000D03*
X151638000Y-86360000D03*
X149098000Y-86360000D03*
X146558000Y-86360000D03*
X141478000Y-86360000D03*
X138938000Y-86360000D03*
X136398000Y-86360000D03*
X151638000Y-83820000D03*
X149098000Y-83820000D03*
X146558000Y-83820000D03*
X141478000Y-83820000D03*
X138938000Y-83820000D03*
X136398000Y-83820000D03*
X151638000Y-81280000D03*
X149098000Y-81280000D03*
X146558000Y-81280000D03*
X141478000Y-81280000D03*
X138938000Y-81280000D03*
X136398000Y-81280000D03*
X151638000Y-78740000D03*
X149098000Y-78740000D03*
X146558000Y-78740000D03*
X141478000Y-78740000D03*
X138938000Y-78740000D03*
X136398000Y-78740000D03*
X151638000Y-76200000D03*
X136398000Y-76200000D03*
D12*
X124968000Y-71120000D03*
D13*
X127508000Y-71120000D03*
X124968000Y-73660000D03*
X127508000Y-73660000D03*
X124968000Y-76200000D03*
X127508000Y-76200000D03*
X124968000Y-78740000D03*
X127508000Y-78740000D03*
X124968000Y-81280000D03*
X127508000Y-81280000D03*
X124968000Y-83820000D03*
X127508000Y-83820000D03*
X124968000Y-86360000D03*
X127508000Y-86360000D03*
X124968000Y-88900000D03*
X127508000Y-88900000D03*
X124968000Y-91440000D03*
X127508000Y-91440000D03*
X124968000Y-93980000D03*
X127508000Y-93980000D03*
X124968000Y-96520000D03*
X127508000Y-96520000D03*
X124968000Y-99060000D03*
X127508000Y-99060000D03*
X124968000Y-101600000D03*
X127508000Y-101600000D03*
X124968000Y-104140000D03*
X127508000Y-104140000D03*
X124968000Y-106680000D03*
X127508000Y-106680000D03*
X124968000Y-109220000D03*
X127508000Y-109220000D03*
X124968000Y-111760000D03*
X127508000Y-111760000D03*
X124968000Y-114300000D03*
X127508000Y-114300000D03*
X124968000Y-116840000D03*
X127508000Y-116840000D03*
X124968000Y-119380000D03*
X127508000Y-119380000D03*
D12*
X160528000Y-71120000D03*
D13*
X163068000Y-71120000D03*
X160528000Y-73660000D03*
X163068000Y-73660000D03*
X160528000Y-76200000D03*
X163068000Y-76200000D03*
X160528000Y-78740000D03*
X163068000Y-78740000D03*
X160528000Y-81280000D03*
X163068000Y-81280000D03*
X160528000Y-83820000D03*
X163068000Y-83820000D03*
X160528000Y-86360000D03*
X163068000Y-86360000D03*
X160528000Y-88900000D03*
X163068000Y-88900000D03*
X160528000Y-91440000D03*
X163068000Y-91440000D03*
X160528000Y-93980000D03*
X163068000Y-93980000D03*
X160528000Y-96520000D03*
X163068000Y-96520000D03*
X160528000Y-99060000D03*
X163068000Y-99060000D03*
X160528000Y-101600000D03*
X163068000Y-101600000D03*
X160528000Y-104140000D03*
X163068000Y-104140000D03*
X160528000Y-106680000D03*
X163068000Y-106680000D03*
X160528000Y-109220000D03*
X163068000Y-109220000D03*
X160528000Y-111760000D03*
X163068000Y-111760000D03*
X160528000Y-114300000D03*
X163068000Y-114300000D03*
X160528000Y-116840000D03*
X163068000Y-116840000D03*
X160528000Y-119380000D03*
X163068000Y-119380000D03*
D12*
X155448000Y-71120000D03*
D11*
X155448000Y-73660000D03*
X155448000Y-76200000D03*
X155448000Y-78740000D03*
X155448000Y-81280000D03*
X155448000Y-83820000D03*
X155448000Y-86360000D03*
X155448000Y-88900000D03*
X155448000Y-91440000D03*
X155448000Y-93980000D03*
X155448000Y-96520000D03*
X155448000Y-99060000D03*
X155448000Y-101600000D03*
X155448000Y-104140000D03*
X155448000Y-106680000D03*
X155448000Y-109220000D03*
X155448000Y-111760000D03*
X155448000Y-114300000D03*
X155448000Y-116840000D03*
X155448000Y-119380000D03*
X157988000Y-71120000D03*
X157988000Y-73660000D03*
X157988000Y-76200000D03*
X157988000Y-78740000D03*
X157988000Y-81280000D03*
X157988000Y-83820000D03*
X157988000Y-86360000D03*
X157988000Y-88900000D03*
X157988000Y-91440000D03*
X157988000Y-93980000D03*
X157988000Y-96520000D03*
X157988000Y-99060000D03*
X157988000Y-101600000D03*
X157988000Y-104140000D03*
X157988000Y-106680000D03*
X157988000Y-109220000D03*
X157988000Y-111760000D03*
X157988000Y-114300000D03*
X157988000Y-116840000D03*
X157988000Y-119380000D03*
X132715000Y-71035001D03*
X132715000Y-73575001D03*
X132715000Y-76115001D03*
X132715000Y-78655001D03*
X132715000Y-81195001D03*
X132715000Y-83735001D03*
X132715000Y-86275001D03*
X132715000Y-88815001D03*
X132715000Y-91355001D03*
X132715000Y-93895001D03*
X132715000Y-96435001D03*
X132715000Y-98975001D03*
X132715000Y-101515001D03*
X132715000Y-104055001D03*
X132715000Y-106595001D03*
X132715000Y-109135001D03*
X132715000Y-111675001D03*
X132715000Y-114215001D03*
X132715000Y-116755001D03*
X132715000Y-119295001D03*
D12*
X130175000Y-71035001D03*
D11*
X130175000Y-73575001D03*
X130175000Y-76115001D03*
X130175000Y-78655001D03*
X130175000Y-81195001D03*
X130175000Y-83735001D03*
X130175000Y-86275001D03*
X130175000Y-88815001D03*
X130175000Y-91355001D03*
X130175000Y-93895001D03*
X130175000Y-96435001D03*
X130175000Y-98975001D03*
X130175000Y-101515001D03*
X130175000Y-104055001D03*
X130175000Y-106595001D03*
X130175000Y-109135001D03*
X130175000Y-111675001D03*
X130175000Y-114215001D03*
X130175000Y-116755001D03*
X130175000Y-119295001D03*
D14*
X149098000Y-99060000D02*
X151638000Y-99060000D01*
X146558000Y-101600000D02*
X149098000Y-101600000D01*
X149098000Y-101600000D02*
X151638000Y-101600000D01*
X151638000Y-109220000D02*
X149098000Y-109220000D01*
X146558000Y-106680000D02*
X151638000Y-106680000D01*
X146558000Y-104140000D02*
X151638000Y-104140000D01*
X146558000Y-99060000D02*
X149098000Y-99060000D01*
X151638000Y-96520000D02*
X146558000Y-96520000D01*
X146558000Y-93980000D02*
X151638000Y-93980000D01*
X149098000Y-91440000D02*
X151638000Y-91440000D01*
X141478000Y-93980000D02*
X144018000Y-93980000D01*
X146558000Y-91440000D02*
X149098000Y-91440000D01*
X141478000Y-91440000D02*
X144018000Y-91440000D01*
X141478000Y-99060000D02*
X144018000Y-99060000D01*
X144018000Y-96520000D02*
X141478000Y-96520000D01*
X141478000Y-104140000D02*
X144018000Y-104140000D01*
X141478000Y-101600000D02*
X144018000Y-101600000D01*
X141478000Y-106680000D02*
X144018000Y-106680000D01*
X141478000Y-109220000D02*
X144018000Y-109220000D01*
X146558000Y-109220000D02*
X149098000Y-109220000D01*
X146558000Y-111760000D02*
X151638000Y-111760000D01*
X146558000Y-116840000D02*
X151638000Y-116840000D01*
X146558000Y-114300000D02*
X151638000Y-114300000D01*
X144018000Y-116840000D02*
X144018000Y-111760000D01*
X141478000Y-111760000D02*
X138938000Y-111760000D01*
X136398000Y-116840000D02*
X141478000Y-116840000D01*
X136398000Y-114300000D02*
X141478000Y-114300000D01*
X136398000Y-111760000D02*
X138938000Y-111760000D01*
X136398000Y-109220000D02*
X138938000Y-109220000D01*
X136398000Y-106680000D02*
X138938000Y-106680000D01*
X136398000Y-104140000D02*
X138938000Y-104140000D01*
X136398000Y-101600000D02*
X138938000Y-101600000D01*
X136398000Y-99060000D02*
X138938000Y-99060000D01*
X138938000Y-96520000D02*
X136398000Y-96520000D01*
X136398000Y-93980000D02*
X138938000Y-93980000D01*
X136398000Y-91440000D02*
X138938000Y-91440000D01*
X136398000Y-88900000D02*
X138938000Y-88900000D01*
X141478000Y-88900000D02*
X144018000Y-88900000D01*
X149098000Y-88900000D02*
X151638000Y-88900000D01*
X146558000Y-88900000D02*
X149098000Y-88900000D01*
X146558000Y-86360000D02*
X151638000Y-86360000D01*
X141478000Y-86360000D02*
X144018000Y-86360000D01*
X136398000Y-86360000D02*
X138938000Y-86360000D01*
X136398000Y-83820000D02*
X141478000Y-83820000D01*
X136398000Y-81280000D02*
X141478000Y-81280000D01*
X146558000Y-83820000D02*
X151638000Y-83820000D01*
X146558000Y-81280000D02*
X151638000Y-81280000D01*
X136398000Y-76200000D02*
X136398000Y-78740000D01*
X138938000Y-78740000D02*
X136398000Y-78740000D01*
X141478000Y-78740000D02*
X138938000Y-78740000D01*
X151638000Y-78740000D02*
X146558000Y-78740000D01*
X151638000Y-76200000D02*
X151638000Y-78740000D01*
X136398000Y-81280000D02*
X141478000Y-81280000D01*
X144018000Y-78740000D02*
X144018000Y-83820000D01*
X136398000Y-83820000D02*
X141478000Y-83820000D01*
X146558000Y-83820000D02*
X151638000Y-83820000D01*
X146558000Y-81280000D02*
X151638000Y-81280000D01*
X136398000Y-86360000D02*
X138938000Y-86360000D01*
X136398000Y-88900000D02*
X138938000Y-88900000D01*
X136398000Y-91440000D02*
X138938000Y-91440000D01*
X136398000Y-93980000D02*
X138938000Y-93980000D01*
X138938000Y-96520000D02*
X136398000Y-96520000D01*
X141478000Y-86360000D02*
X144018000Y-86360000D01*
X141478000Y-88900000D02*
X144018000Y-88900000D01*
X141478000Y-91440000D02*
X144018000Y-91440000D01*
X141478000Y-93980000D02*
X144018000Y-93980000D01*
X146558000Y-86360000D02*
X151638000Y-86360000D01*
X141478000Y-101600000D02*
X144018000Y-101600000D01*
X146558000Y-99060000D02*
X149098000Y-99060000D01*
X146558000Y-101600000D02*
X149098000Y-101600000D01*
X146558000Y-104140000D02*
X151638000Y-104140000D01*
X146558000Y-106680000D02*
X151638000Y-106680000D01*
X146558000Y-109220000D02*
X149098000Y-109220000D01*
X146558000Y-111760000D02*
X151638000Y-111760000D01*
X141478000Y-111760000D02*
X138938000Y-111760000D01*
X136398000Y-111760000D02*
X138938000Y-111760000D01*
X141478000Y-109220000D02*
X144018000Y-109220000D01*
X141478000Y-104140000D02*
X144018000Y-104140000D01*
X141478000Y-106680000D02*
X144018000Y-106680000D01*
X136398000Y-106680000D02*
X138938000Y-106680000D01*
X136398000Y-104140000D02*
X138938000Y-104140000D01*
X141478000Y-99060000D02*
X144018000Y-99060000D01*
X144018000Y-96520000D02*
X141478000Y-96520000D01*
X151638000Y-96520000D02*
X146558000Y-96520000D01*
X146558000Y-93980000D02*
X151638000Y-93980000D01*
X146558000Y-91440000D02*
X149098000Y-91440000D01*
X146558000Y-88900000D02*
X149098000Y-88900000D01*
X136398000Y-109220000D02*
X138938000Y-109220000D01*
X151638000Y-109220000D02*
X149098000Y-109220000D01*
X149098000Y-101600000D02*
X151638000Y-101600000D01*
X149098000Y-99060000D02*
X151638000Y-99060000D01*
X136398000Y-101600000D02*
X138938000Y-101600000D01*
X136398000Y-99060000D02*
X138938000Y-99060000D01*
X149098000Y-91440000D02*
X151638000Y-91440000D01*
X149098000Y-88900000D02*
X151638000Y-88900000D01*
X144018000Y-116840000D02*
X144018000Y-111760000D01*
X146558000Y-114300000D02*
X151638000Y-114300000D01*
X146558000Y-116840000D02*
X151638000Y-116840000D01*
X136398000Y-114300000D02*
X141478000Y-114300000D01*
X136398000Y-116840000D02*
X141478000Y-116840000D01*
D15*
X159385000Y-119380000D02*
X155448000Y-119380000D01*
X163068000Y-119380000D02*
X159385000Y-119380000D01*
X163068000Y-96520000D02*
X160528000Y-96520000D01*
X157988000Y-96520000D02*
X160528000Y-96520000D01*
X155448000Y-96520000D02*
X157988000Y-96520000D01*
X156641801Y-72313801D02*
X159334199Y-72313801D01*
X155448000Y-71120000D02*
X156641801Y-72313801D01*
X159334199Y-72313801D02*
X160528000Y-71120000D01*
X127508000Y-83820000D02*
X128371599Y-82956401D01*
X128371599Y-82956401D02*
X129186774Y-82956401D01*
X131521199Y-82541200D02*
X131851401Y-82871402D01*
X129186774Y-82956401D02*
X129601975Y-82541200D01*
X129601975Y-82541200D02*
X131521199Y-82541200D01*
X131851401Y-82871402D02*
X132715000Y-83735001D01*
X130175000Y-71035001D02*
X131038599Y-71898600D01*
X131038599Y-71898600D02*
X132715000Y-73575001D01*
X127508000Y-73660000D02*
X130132999Y-71035001D01*
X130132999Y-71035001D02*
X130175000Y-71035001D01*
X124968000Y-71120000D02*
X127508000Y-73660000D01*
X163068000Y-71120000D02*
X161874199Y-69926199D01*
X161874199Y-69926199D02*
X159181801Y-69926199D01*
X159181801Y-69926199D02*
X158851599Y-70256401D01*
X158851599Y-70256401D02*
X157988000Y-71120000D01*
X124968000Y-73660000D02*
X126161801Y-74853801D01*
X126161801Y-74853801D02*
X128896200Y-74853801D01*
X128896200Y-74853801D02*
X129311401Y-74438600D01*
X129311401Y-74438600D02*
X130175000Y-73575001D01*
X155448000Y-81280000D02*
X156641801Y-82473801D01*
X159334199Y-82473801D02*
X159664401Y-82143599D01*
X156641801Y-82473801D02*
X159334199Y-82473801D01*
X159664401Y-82143599D02*
X160528000Y-81280000D01*
X124968000Y-76200000D02*
X126161801Y-77393801D01*
X129311401Y-76978600D02*
X130175000Y-76115001D01*
X126161801Y-77393801D02*
X128896200Y-77393801D01*
X128896200Y-77393801D02*
X129311401Y-76978600D01*
X127508000Y-71120000D02*
X128786800Y-69841200D01*
X128786800Y-69841200D02*
X131521199Y-69841200D01*
X131521199Y-69841200D02*
X132715000Y-71035001D01*
X127508000Y-76200000D02*
X128371599Y-75336401D01*
X129601975Y-74921200D02*
X131521199Y-74921200D01*
X128371599Y-75336401D02*
X129186774Y-75336401D01*
X129186774Y-75336401D02*
X129601975Y-74921200D01*
X131521199Y-74921200D02*
X131851401Y-75251402D01*
X131851401Y-75251402D02*
X132715000Y-76115001D01*
X124968000Y-78740000D02*
X126314199Y-80086199D01*
X126314199Y-80086199D02*
X128743802Y-80086199D01*
X128743802Y-80086199D02*
X129311401Y-79518600D01*
X129311401Y-79518600D02*
X130175000Y-78655001D01*
X127508000Y-78740000D02*
X128371599Y-77876401D01*
X128371599Y-77876401D02*
X129186774Y-77876401D01*
X129186774Y-77876401D02*
X129601975Y-77461200D01*
X129601975Y-77461200D02*
X131521199Y-77461200D01*
X131521199Y-77461200D02*
X131851401Y-77791402D01*
X131851401Y-77791402D02*
X132715000Y-78655001D01*
X124968000Y-81280000D02*
X126161801Y-82473801D01*
X126161801Y-82473801D02*
X128896200Y-82473801D01*
X128896200Y-82473801D02*
X129311401Y-82058600D01*
X129311401Y-82058600D02*
X130175000Y-81195001D01*
X127508000Y-81280000D02*
X128323175Y-81280000D01*
X128323175Y-81280000D02*
X129601975Y-80001200D01*
X129601975Y-80001200D02*
X131521199Y-80001200D01*
X131521199Y-80001200D02*
X131851401Y-80331402D01*
X131851401Y-80331402D02*
X132715000Y-81195001D01*
X124968000Y-83820000D02*
X126161801Y-85013801D01*
X126161801Y-85013801D02*
X128896200Y-85013801D01*
X128896200Y-85013801D02*
X129311401Y-84598600D01*
X129311401Y-84598600D02*
X130175000Y-83735001D01*
X124968000Y-86360000D02*
X126161801Y-87553801D01*
X126161801Y-87553801D02*
X128896200Y-87553801D01*
X128896200Y-87553801D02*
X129311401Y-87138600D01*
X129311401Y-87138600D02*
X130175000Y-86275001D01*
X127508000Y-86360000D02*
X128371599Y-85496401D01*
X128371599Y-85496401D02*
X129186774Y-85496401D01*
X131851401Y-85411402D02*
X132715000Y-86275001D01*
X129186774Y-85496401D02*
X129601975Y-85081200D01*
X129601975Y-85081200D02*
X131521199Y-85081200D01*
X131521199Y-85081200D02*
X131851401Y-85411402D01*
X124968000Y-88900000D02*
X126161801Y-90093801D01*
X129311401Y-89678600D02*
X130175000Y-88815001D01*
X126161801Y-90093801D02*
X128896200Y-90093801D01*
X128896200Y-90093801D02*
X129311401Y-89678600D01*
X127508000Y-88900000D02*
X128371599Y-88036401D01*
X131521199Y-87621200D02*
X131851401Y-87951402D01*
X128371599Y-88036401D02*
X129186774Y-88036401D01*
X129186774Y-88036401D02*
X129601975Y-87621200D01*
X129601975Y-87621200D02*
X131521199Y-87621200D01*
X131851401Y-87951402D02*
X132715000Y-88815001D01*
X124968000Y-91440000D02*
X126161801Y-92633801D01*
X126161801Y-92633801D02*
X128896200Y-92633801D01*
X128896200Y-92633801D02*
X129311401Y-92218600D01*
X129311401Y-92218600D02*
X130175000Y-91355001D01*
X127508000Y-91440000D02*
X128371599Y-90576401D01*
X128371599Y-90576401D02*
X129186774Y-90576401D01*
X129186774Y-90576401D02*
X129601975Y-90161200D01*
X129601975Y-90161200D02*
X131521199Y-90161200D01*
X131521199Y-90161200D02*
X131851401Y-90491402D01*
X131851401Y-90491402D02*
X132715000Y-91355001D01*
X124968000Y-93980000D02*
X126161801Y-95173801D01*
X126161801Y-95173801D02*
X128896200Y-95173801D01*
X128896200Y-95173801D02*
X129311401Y-94758600D01*
X129311401Y-94758600D02*
X130175000Y-93895001D01*
X127508000Y-93980000D02*
X128323175Y-93980000D01*
X131851401Y-93031402D02*
X132715000Y-93895001D01*
X128323175Y-93980000D02*
X129601975Y-92701200D01*
X129601975Y-92701200D02*
X131521199Y-92701200D01*
X131521199Y-92701200D02*
X131851401Y-93031402D01*
X124968000Y-96520000D02*
X126161801Y-97713801D01*
X126161801Y-97713801D02*
X128896200Y-97713801D01*
X128896200Y-97713801D02*
X129311401Y-97298600D01*
X129311401Y-97298600D02*
X130175000Y-96435001D01*
X127508000Y-96520000D02*
X128371599Y-95656401D01*
X128371599Y-95656401D02*
X129186774Y-95656401D01*
X129186774Y-95656401D02*
X129601975Y-95241200D01*
X129601975Y-95241200D02*
X131521199Y-95241200D01*
X131521199Y-95241200D02*
X131851401Y-95571402D01*
X131851401Y-95571402D02*
X132715000Y-96435001D01*
X124968000Y-99060000D02*
X126161801Y-100253801D01*
X126161801Y-100253801D02*
X128896200Y-100253801D01*
X129311401Y-99838600D02*
X130175000Y-98975001D01*
X128896200Y-100253801D02*
X129311401Y-99838600D01*
X127508000Y-99060000D02*
X128371599Y-98196401D01*
X128371599Y-98196401D02*
X129186774Y-98196401D01*
X129186774Y-98196401D02*
X129601975Y-97781200D01*
X129601975Y-97781200D02*
X131521199Y-97781200D01*
X131521199Y-97781200D02*
X131851401Y-98111402D01*
X131851401Y-98111402D02*
X132715000Y-98975001D01*
X124968000Y-101600000D02*
X126161801Y-102793801D01*
X128896200Y-102793801D02*
X129311401Y-102378600D01*
X126161801Y-102793801D02*
X128896200Y-102793801D01*
X129311401Y-102378600D02*
X130175000Y-101515001D01*
X127508000Y-101600000D02*
X128371599Y-100736401D01*
X128371599Y-100736401D02*
X129186774Y-100736401D01*
X129186774Y-100736401D02*
X129601975Y-100321200D01*
X131521199Y-100321200D02*
X131851401Y-100651402D01*
X129601975Y-100321200D02*
X131521199Y-100321200D01*
X131851401Y-100651402D02*
X132715000Y-101515001D01*
X124968000Y-104140000D02*
X126161801Y-105333801D01*
X126161801Y-105333801D02*
X128896200Y-105333801D01*
X128896200Y-105333801D02*
X129311401Y-104918600D01*
X129311401Y-104918600D02*
X130175000Y-104055001D01*
X127508000Y-104140000D02*
X128371599Y-103276401D01*
X128371599Y-103276401D02*
X129186774Y-103276401D01*
X131851401Y-103191402D02*
X132715000Y-104055001D01*
X129186774Y-103276401D02*
X129601975Y-102861200D01*
X129601975Y-102861200D02*
X131521199Y-102861200D01*
X131521199Y-102861200D02*
X131851401Y-103191402D01*
X124968000Y-106680000D02*
X126161801Y-107873801D01*
X126161801Y-107873801D02*
X128896200Y-107873801D01*
X128896200Y-107873801D02*
X129311401Y-107458600D01*
X129311401Y-107458600D02*
X130175000Y-106595001D01*
X127508000Y-106680000D02*
X128371599Y-105816401D01*
X128371599Y-105816401D02*
X129186774Y-105816401D01*
X129186774Y-105816401D02*
X129601975Y-105401200D01*
X129601975Y-105401200D02*
X131521199Y-105401200D01*
X131521199Y-105401200D02*
X131851401Y-105731402D01*
X131851401Y-105731402D02*
X132715000Y-106595001D01*
X124968000Y-109220000D02*
X126161801Y-110413801D01*
X126161801Y-110413801D02*
X128896200Y-110413801D01*
X128896200Y-110413801D02*
X129311401Y-109998600D01*
X129311401Y-109998600D02*
X130175000Y-109135001D01*
X127508000Y-109220000D02*
X128371599Y-108356401D01*
X128371599Y-108356401D02*
X129186774Y-108356401D01*
X131521199Y-107941200D02*
X131851401Y-108271402D01*
X131851401Y-108271402D02*
X132715000Y-109135001D01*
X129186774Y-108356401D02*
X129601975Y-107941200D01*
X129601975Y-107941200D02*
X131521199Y-107941200D01*
X124968000Y-111760000D02*
X126161801Y-112953801D01*
X129311401Y-112538600D02*
X130175000Y-111675001D01*
X126161801Y-112953801D02*
X128896200Y-112953801D01*
X128896200Y-112953801D02*
X129311401Y-112538600D01*
X127508000Y-111760000D02*
X128371599Y-110896401D01*
X128371599Y-110896401D02*
X129186774Y-110896401D01*
X129186774Y-110896401D02*
X129601975Y-110481200D01*
X129601975Y-110481200D02*
X131521199Y-110481200D01*
X131521199Y-110481200D02*
X131851401Y-110811402D01*
X131851401Y-110811402D02*
X132715000Y-111675001D01*
X124968000Y-114300000D02*
X126161801Y-115493801D01*
X129311401Y-115078600D02*
X130175000Y-114215001D01*
X126161801Y-115493801D02*
X128896200Y-115493801D01*
X128896200Y-115493801D02*
X129311401Y-115078600D01*
X127508000Y-114300000D02*
X128323175Y-114300000D01*
X128323175Y-114300000D02*
X129601975Y-113021200D01*
X129601975Y-113021200D02*
X131521199Y-113021200D01*
X131521199Y-113021200D02*
X131851401Y-113351402D01*
X131851401Y-113351402D02*
X132715000Y-114215001D01*
X124968000Y-116840000D02*
X126161801Y-118033801D01*
X126161801Y-118033801D02*
X128896200Y-118033801D01*
X128896200Y-118033801D02*
X129311401Y-117618600D01*
X129311401Y-117618600D02*
X130175000Y-116755001D01*
X127508000Y-116840000D02*
X128371599Y-115976401D01*
X128371599Y-115976401D02*
X129186774Y-115976401D01*
X129186774Y-115976401D02*
X129601975Y-115561200D01*
X129601975Y-115561200D02*
X131521199Y-115561200D01*
X131521199Y-115561200D02*
X131851401Y-115891402D01*
X131851401Y-115891402D02*
X132715000Y-116755001D01*
X127508000Y-119380000D02*
X128371599Y-118516401D01*
X128371599Y-118516401D02*
X129186774Y-118516401D01*
X129186774Y-118516401D02*
X129601975Y-118101200D01*
X129601975Y-118101200D02*
X131521199Y-118101200D01*
X131521199Y-118101200D02*
X131851401Y-118431402D01*
X131851401Y-118431402D02*
X132715000Y-119295001D01*
X159664401Y-74523599D02*
X160528000Y-73660000D01*
X159089651Y-74523599D02*
X159664401Y-74523599D01*
X156641801Y-74853801D02*
X158759449Y-74853801D01*
X155448000Y-73660000D02*
X156641801Y-74853801D01*
X158759449Y-74853801D02*
X159089651Y-74523599D01*
X157988000Y-73660000D02*
X158851599Y-72796401D01*
X161874199Y-72466199D02*
X162204401Y-72796401D01*
X158851599Y-72796401D02*
X159624773Y-72796401D01*
X159624773Y-72796401D02*
X159954975Y-72466199D01*
X159954975Y-72466199D02*
X161874199Y-72466199D01*
X162204401Y-72796401D02*
X163068000Y-73660000D01*
X155448000Y-76200000D02*
X156641801Y-77393801D01*
X156641801Y-77393801D02*
X159334199Y-77393801D01*
X159334199Y-77393801D02*
X159664401Y-77063599D01*
X159664401Y-77063599D02*
X160528000Y-76200000D01*
X163068000Y-76200000D02*
X161874199Y-75006199D01*
X161874199Y-75006199D02*
X159181801Y-75006199D01*
X159181801Y-75006199D02*
X158851599Y-75336401D01*
X158851599Y-75336401D02*
X157988000Y-76200000D01*
X155448000Y-78740000D02*
X156641801Y-79933801D01*
X159334199Y-79933801D02*
X159664401Y-79603599D01*
X156641801Y-79933801D02*
X159334199Y-79933801D01*
X159664401Y-79603599D02*
X160528000Y-78740000D01*
X157988000Y-78740000D02*
X158851599Y-77876401D01*
X158851599Y-77876401D02*
X159624773Y-77876401D01*
X159624773Y-77876401D02*
X159954975Y-77546199D01*
X159954975Y-77546199D02*
X161874199Y-77546199D01*
X161874199Y-77546199D02*
X162204401Y-77876401D01*
X162204401Y-77876401D02*
X163068000Y-78740000D01*
X157988000Y-81280000D02*
X158761174Y-81280000D01*
X158761174Y-81280000D02*
X159954975Y-80086199D01*
X159954975Y-80086199D02*
X161874199Y-80086199D01*
X162204401Y-80416401D02*
X163068000Y-81280000D01*
X161874199Y-80086199D02*
X162204401Y-80416401D01*
X155448000Y-83820000D02*
X156641801Y-85013801D01*
X156641801Y-85013801D02*
X159334199Y-85013801D01*
X159334199Y-85013801D02*
X159664401Y-84683599D01*
X159664401Y-84683599D02*
X160528000Y-83820000D01*
X157988000Y-83820000D02*
X158761174Y-83820000D01*
X159954975Y-82626199D02*
X161874199Y-82626199D01*
X162204401Y-82956401D02*
X163068000Y-83820000D01*
X158761174Y-83820000D02*
X159954975Y-82626199D01*
X161874199Y-82626199D02*
X162204401Y-82956401D01*
X155448000Y-86360000D02*
X156641801Y-87553801D01*
X156641801Y-87553801D02*
X159334199Y-87553801D01*
X159334199Y-87553801D02*
X159664401Y-87223599D01*
X159664401Y-87223599D02*
X160528000Y-86360000D01*
X157988000Y-86360000D02*
X158761174Y-86360000D01*
X158761174Y-86360000D02*
X159954975Y-85166199D01*
X159954975Y-85166199D02*
X161874199Y-85166199D01*
X161874199Y-85166199D02*
X162204401Y-85496401D01*
X162204401Y-85496401D02*
X163068000Y-86360000D01*
X155448000Y-88900000D02*
X156641801Y-90093801D01*
X156641801Y-90093801D02*
X159334199Y-90093801D01*
X159334199Y-90093801D02*
X159664401Y-89763599D01*
X159664401Y-89763599D02*
X160528000Y-88900000D01*
X157988000Y-88900000D02*
X158851599Y-88036401D01*
X159624773Y-88036401D02*
X159954975Y-87706199D01*
X158851599Y-88036401D02*
X159624773Y-88036401D01*
X159954975Y-87706199D02*
X161874199Y-87706199D01*
X161874199Y-87706199D02*
X162204401Y-88036401D01*
X162204401Y-88036401D02*
X163068000Y-88900000D01*
X155448000Y-91440000D02*
X156641801Y-92633801D01*
X156641801Y-92633801D02*
X159334199Y-92633801D01*
X159334199Y-92633801D02*
X159664401Y-92303599D01*
X159664401Y-92303599D02*
X160528000Y-91440000D01*
X157988000Y-91440000D02*
X158851599Y-90576401D01*
X162204401Y-90576401D02*
X163068000Y-91440000D01*
X158851599Y-90576401D02*
X159624773Y-90576401D01*
X159954975Y-90246199D02*
X161874199Y-90246199D01*
X159624773Y-90576401D02*
X159954975Y-90246199D01*
X161874199Y-90246199D02*
X162204401Y-90576401D01*
X155448000Y-93980000D02*
X156641801Y-95173801D01*
X156641801Y-95173801D02*
X159334199Y-95173801D01*
X159334199Y-95173801D02*
X159664401Y-94843599D01*
X159664401Y-94843599D02*
X160528000Y-93980000D01*
X157988000Y-93980000D02*
X158851599Y-93116401D01*
X158851599Y-93116401D02*
X159624773Y-93116401D01*
X159624773Y-93116401D02*
X159954975Y-92786199D01*
X159954975Y-92786199D02*
X161874199Y-92786199D01*
X161874199Y-92786199D02*
X162204401Y-93116401D01*
X162204401Y-93116401D02*
X163068000Y-93980000D01*
X155448000Y-99060000D02*
X156641801Y-97866199D01*
X156641801Y-97866199D02*
X159334199Y-97866199D01*
X159334199Y-97866199D02*
X159664401Y-98196401D01*
X159664401Y-98196401D02*
X160528000Y-99060000D01*
X161874199Y-100253801D02*
X162204401Y-99923599D01*
X159756551Y-100253801D02*
X161874199Y-100253801D01*
X159426349Y-99923599D02*
X159756551Y-100253801D01*
X158851599Y-99923599D02*
X159426349Y-99923599D01*
X162204401Y-99923599D02*
X163068000Y-99060000D01*
X157988000Y-99060000D02*
X158851599Y-99923599D01*
X159334199Y-100406199D02*
X159664401Y-100736401D01*
X155448000Y-101600000D02*
X156641801Y-100406199D01*
X156641801Y-100406199D02*
X159334199Y-100406199D01*
X159664401Y-100736401D02*
X160528000Y-101600000D01*
X157988000Y-101600000D02*
X159181801Y-102793801D01*
X159181801Y-102793801D02*
X161874199Y-102793801D01*
X161874199Y-102793801D02*
X162204401Y-102463599D01*
X162204401Y-102463599D02*
X163068000Y-101600000D01*
X160528000Y-104140000D02*
X159664401Y-103276401D01*
X159664401Y-103276401D02*
X158891227Y-103276401D01*
X158891227Y-103276401D02*
X158561025Y-102946199D01*
X158561025Y-102946199D02*
X156641801Y-102946199D01*
X156641801Y-102946199D02*
X156311599Y-103276401D01*
X156311599Y-103276401D02*
X155448000Y-104140000D01*
X163068000Y-104140000D02*
X161874199Y-105333801D01*
X161874199Y-105333801D02*
X159181801Y-105333801D01*
X159181801Y-105333801D02*
X158851599Y-105003599D01*
X158851599Y-105003599D02*
X157988000Y-104140000D01*
X160528000Y-106680000D02*
X159664401Y-105816401D01*
X159664401Y-105816401D02*
X158891227Y-105816401D01*
X158891227Y-105816401D02*
X158561025Y-105486199D01*
X158561025Y-105486199D02*
X156641801Y-105486199D01*
X156641801Y-105486199D02*
X156311599Y-105816401D01*
X156311599Y-105816401D02*
X155448000Y-106680000D01*
X163068000Y-106680000D02*
X161874199Y-107873801D01*
X161874199Y-107873801D02*
X159181801Y-107873801D01*
X159181801Y-107873801D02*
X158851599Y-107543599D01*
X158851599Y-107543599D02*
X157988000Y-106680000D01*
X160528000Y-109220000D02*
X159664401Y-108356401D01*
X159664401Y-108356401D02*
X158891227Y-108356401D01*
X158891227Y-108356401D02*
X158561025Y-108026199D01*
X156311599Y-108356401D02*
X155448000Y-109220000D01*
X158561025Y-108026199D02*
X156641801Y-108026199D01*
X156641801Y-108026199D02*
X156311599Y-108356401D01*
X163068000Y-109220000D02*
X161874199Y-110413801D01*
X159181801Y-110413801D02*
X158851599Y-110083599D01*
X158851599Y-110083599D02*
X157988000Y-109220000D01*
X161874199Y-110413801D02*
X159181801Y-110413801D01*
X160528000Y-111760000D02*
X159664401Y-110896401D01*
X159664401Y-110896401D02*
X158891227Y-110896401D01*
X158891227Y-110896401D02*
X158561025Y-110566199D01*
X158561025Y-110566199D02*
X156641801Y-110566199D01*
X156641801Y-110566199D02*
X156311599Y-110896401D01*
X156311599Y-110896401D02*
X155448000Y-111760000D01*
X158851599Y-112623599D02*
X157988000Y-111760000D01*
X159426349Y-112623599D02*
X158851599Y-112623599D01*
X159756551Y-112953801D02*
X159426349Y-112623599D01*
X161874199Y-112953801D02*
X159756551Y-112953801D01*
X163068000Y-111760000D02*
X161874199Y-112953801D01*
X155448000Y-114300000D02*
X156641801Y-113106199D01*
X159334199Y-113106199D02*
X159664401Y-113436401D01*
X159664401Y-113436401D02*
X160528000Y-114300000D01*
X156641801Y-113106199D02*
X159334199Y-113106199D01*
X163068000Y-114300000D02*
X161874199Y-115493801D01*
X161874199Y-115493801D02*
X159181801Y-115493801D01*
X159181801Y-115493801D02*
X158851599Y-115163599D01*
X158851599Y-115163599D02*
X157988000Y-114300000D01*
X155448000Y-116840000D02*
X156641801Y-115646199D01*
X156641801Y-115646199D02*
X158561025Y-115646199D01*
X158561025Y-115646199D02*
X158891227Y-115976401D01*
X158891227Y-115976401D02*
X159664401Y-115976401D01*
X159664401Y-115976401D02*
X160528000Y-116840000D01*
X157988000Y-116840000D02*
X159181801Y-118033801D01*
X159181801Y-118033801D02*
X161874199Y-118033801D01*
X161874199Y-118033801D02*
X162204401Y-117703599D01*
X162204401Y-117703599D02*
X163068000Y-116840000D01*
M02*
