G04 #@! TF.FileFunction,Legend,Top*
%FSLAX46Y46*%
G04 Gerber Fmt 4.6, Leading zero omitted, Abs format (unit mm)*
G04 Created by KiCad (PCBNEW 4.0.1-3.201512221402+6198~38~ubuntu14.04.1-stable) date Fri 13 May 2016 10:50:05 PM PDT*
%MOMM*%
G01*
G04 APERTURE LIST*
%ADD10C,0.100000*%
%ADD11C,0.300000*%
%ADD12C,0.150000*%
G04 APERTURE END LIST*
D10*
D11*
X135429179Y-70090571D02*
X135616679Y-68590571D01*
X136188107Y-68590571D01*
X136322036Y-68662000D01*
X136384535Y-68733429D01*
X136438107Y-68876286D01*
X136411322Y-69090571D01*
X136322035Y-69233429D01*
X136241679Y-69304857D01*
X136089892Y-69376286D01*
X135518464Y-69376286D01*
X136929179Y-70090571D02*
X137054179Y-69090571D01*
X137018464Y-69376286D02*
X137107749Y-69233429D01*
X137188107Y-69162000D01*
X137339893Y-69090571D01*
X137482750Y-69090571D01*
X138072036Y-70090571D02*
X137938106Y-70019143D01*
X137875607Y-69947714D01*
X137822035Y-69804857D01*
X137875606Y-69376286D01*
X137964892Y-69233429D01*
X138045249Y-69162000D01*
X138197036Y-69090571D01*
X138411321Y-69090571D01*
X138545249Y-69162000D01*
X138607749Y-69233429D01*
X138661321Y-69376286D01*
X138607750Y-69804857D01*
X138518464Y-69947714D01*
X138438106Y-70019143D01*
X138286321Y-70090571D01*
X138072036Y-70090571D01*
X139125607Y-69090571D02*
X139697036Y-69090571D01*
X139402393Y-68590571D02*
X139241678Y-69876286D01*
X139295249Y-70019143D01*
X139429179Y-70090571D01*
X139572036Y-70090571D01*
X140286322Y-70090571D02*
X140152392Y-70019143D01*
X140089893Y-69947714D01*
X140036321Y-69804857D01*
X140089892Y-69376286D01*
X140179178Y-69233429D01*
X140259535Y-69162000D01*
X140411322Y-69090571D01*
X140625607Y-69090571D01*
X140759535Y-69162000D01*
X140822035Y-69233429D01*
X140875607Y-69376286D01*
X140822036Y-69804857D01*
X140732750Y-69947714D01*
X140652392Y-70019143D01*
X140500607Y-70090571D01*
X140286322Y-70090571D01*
X141429179Y-70090571D02*
X141616679Y-68590571D01*
X141545250Y-69162000D02*
X141697036Y-69090571D01*
X141982750Y-69090571D01*
X142116678Y-69162000D01*
X142179178Y-69233429D01*
X142232750Y-69376286D01*
X142179179Y-69804857D01*
X142089893Y-69947714D01*
X142009535Y-70019143D01*
X141857750Y-70090571D01*
X141572036Y-70090571D01*
X141438107Y-70019143D01*
X143000608Y-70090571D02*
X142866678Y-70019143D01*
X142804179Y-69947714D01*
X142750607Y-69804857D01*
X142804178Y-69376286D01*
X142893464Y-69233429D01*
X142973821Y-69162000D01*
X143125608Y-69090571D01*
X143339893Y-69090571D01*
X143473821Y-69162000D01*
X143536321Y-69233429D01*
X143589893Y-69376286D01*
X143536322Y-69804857D01*
X143447036Y-69947714D01*
X143366678Y-70019143D01*
X143214893Y-70090571D01*
X143000608Y-70090571D01*
X144786322Y-70090571D02*
X144884536Y-69304857D01*
X144830964Y-69162000D01*
X144697036Y-69090571D01*
X144411322Y-69090571D01*
X144259536Y-69162000D01*
X144795250Y-70019143D02*
X144643465Y-70090571D01*
X144286322Y-70090571D01*
X144152393Y-70019143D01*
X144098821Y-69876286D01*
X144116678Y-69733429D01*
X144205965Y-69590571D01*
X144357750Y-69519143D01*
X144714893Y-69519143D01*
X144866679Y-69447714D01*
X145500608Y-70090571D02*
X145625608Y-69090571D01*
X145589893Y-69376286D02*
X145679178Y-69233429D01*
X145759536Y-69162000D01*
X145911322Y-69090571D01*
X146054179Y-69090571D01*
X147072036Y-70090571D02*
X147259536Y-68590571D01*
X147080964Y-70019143D02*
X146929179Y-70090571D01*
X146643465Y-70090571D01*
X146509535Y-70019143D01*
X146447036Y-69947714D01*
X146393464Y-69804857D01*
X146447035Y-69376286D01*
X146536321Y-69233429D01*
X146616678Y-69162000D01*
X146768465Y-69090571D01*
X147054179Y-69090571D01*
X147188107Y-69162000D01*
X148929179Y-70090571D02*
X149116679Y-68590571D01*
X149473822Y-68590571D01*
X149679178Y-68662000D01*
X149804179Y-68804857D01*
X149857750Y-68947714D01*
X149893464Y-69233429D01*
X149866679Y-69447714D01*
X149759535Y-69733429D01*
X149670250Y-69876286D01*
X149509535Y-70019143D01*
X149286322Y-70090571D01*
X148929179Y-70090571D01*
X150429179Y-70090571D02*
X150616679Y-68590571D01*
X151143465Y-70090571D02*
X151330965Y-68590571D01*
X151902393Y-68590571D01*
X152036322Y-68662000D01*
X152098821Y-68733429D01*
X152152393Y-68876286D01*
X152125608Y-69090571D01*
X152036321Y-69233429D01*
X151955965Y-69304857D01*
X151804178Y-69376286D01*
X151232750Y-69376286D01*
X138089893Y-71490571D02*
X138661322Y-71490571D01*
X138179179Y-72490571D02*
X138339893Y-71204857D01*
X138429178Y-71062000D01*
X138580965Y-70990571D01*
X138723822Y-70990571D01*
X139250608Y-72490571D02*
X139116678Y-72419143D01*
X139054179Y-72347714D01*
X139000607Y-72204857D01*
X139054178Y-71776286D01*
X139143464Y-71633429D01*
X139223821Y-71562000D01*
X139375608Y-71490571D01*
X139589893Y-71490571D01*
X139723821Y-71562000D01*
X139786321Y-71633429D01*
X139839893Y-71776286D01*
X139786322Y-72204857D01*
X139697036Y-72347714D01*
X139616678Y-72419143D01*
X139464893Y-72490571D01*
X139250608Y-72490571D01*
X140393465Y-72490571D02*
X140518465Y-71490571D01*
X140482750Y-71776286D02*
X140572035Y-71633429D01*
X140652393Y-71562000D01*
X140804179Y-71490571D01*
X140947036Y-71490571D01*
X143339893Y-72347714D02*
X143259535Y-72419143D01*
X143036321Y-72490571D01*
X142893464Y-72490571D01*
X142688107Y-72419143D01*
X142563106Y-72276286D01*
X142509535Y-72133429D01*
X142473821Y-71847714D01*
X142500606Y-71633429D01*
X142607750Y-71347714D01*
X142697035Y-71204857D01*
X142857750Y-71062000D01*
X143080964Y-70990571D01*
X143223821Y-70990571D01*
X143429178Y-71062000D01*
X143491678Y-71133429D01*
X143982750Y-72347714D02*
X144045249Y-72419143D01*
X143964893Y-72490571D01*
X143902392Y-72419143D01*
X143982750Y-72347714D01*
X143964893Y-72490571D01*
X144679179Y-72490571D02*
X144866679Y-70990571D01*
X144777393Y-71704857D02*
X145634536Y-71704857D01*
X145536322Y-72490571D02*
X145723822Y-70990571D01*
X146268465Y-72347714D02*
X146330964Y-72419143D01*
X146250608Y-72490571D01*
X146188107Y-72419143D01*
X146268465Y-72347714D01*
X146250608Y-72490571D01*
X146964894Y-72490571D02*
X147152394Y-70990571D01*
X147697037Y-72347714D02*
X147759536Y-72419143D01*
X147679180Y-72490571D01*
X147616679Y-72419143D01*
X147697037Y-72347714D01*
X147679180Y-72490571D01*
X148393466Y-72490571D02*
X148580966Y-70990571D01*
X149152394Y-70990571D01*
X149286323Y-71062000D01*
X149348822Y-71133429D01*
X149402394Y-71276286D01*
X149375609Y-71490571D01*
X149286322Y-71633429D01*
X149205966Y-71704857D01*
X149054179Y-71776286D01*
X148482751Y-71776286D01*
D12*
X128778000Y-120650000D02*
X128778000Y-69850000D01*
X123698000Y-72390000D02*
X123698000Y-120650000D01*
X128778000Y-120650000D02*
X123698000Y-120650000D01*
X128778000Y-69850000D02*
X126238000Y-69850000D01*
X126238000Y-69850000D02*
X126238000Y-72390000D01*
X126238000Y-72390000D02*
X123698000Y-72390000D01*
X164338000Y-120650000D02*
X164338000Y-69850000D01*
X159258000Y-72390000D02*
X159258000Y-120650000D01*
X164338000Y-120650000D02*
X159258000Y-120650000D01*
X164338000Y-69850000D02*
X161798000Y-69850000D01*
X161798000Y-69850000D02*
X161798000Y-72390000D01*
X161798000Y-72390000D02*
X159258000Y-72390000D01*
M02*
