G04 #@! TF.FileFunction,Legend,Bot*
%FSLAX46Y46*%
G04 Gerber Fmt 4.6, Leading zero omitted, Abs format (unit mm)*
G04 Created by KiCad (PCBNEW 4.0.1-3.201512221402+6198~38~ubuntu14.04.1-stable) date Fri 13 May 2016 10:50:05 PM PDT*
%MOMM*%
G01*
G04 APERTURE LIST*
%ADD10C,0.100000*%
%ADD11C,0.254000*%
%ADD12C,0.150000*%
G04 APERTURE END LIST*
D10*
D11*
X161544000Y-69596000D02*
X162560000Y-70612000D01*
X159512000Y-69596000D02*
X161544000Y-69596000D01*
X158496000Y-70612000D02*
X159512000Y-69596000D01*
X159258000Y-72390000D02*
X160020000Y-71882000D01*
X156718000Y-72390000D02*
X159258000Y-72390000D01*
X155448000Y-71120000D02*
X156718000Y-72390000D01*
X131318000Y-69596000D02*
X132334000Y-70612000D01*
X129032000Y-69596000D02*
X131318000Y-69596000D01*
X128778000Y-69850000D02*
X129032000Y-69596000D01*
X127508000Y-71120000D02*
X128778000Y-69850000D01*
X128778000Y-72390000D02*
X129540000Y-71628000D01*
X126238000Y-72390000D02*
X128778000Y-72390000D01*
X125730000Y-71882000D02*
X126238000Y-72390000D01*
X156109457Y-67291857D02*
X155973386Y-68138524D01*
X155655886Y-67533762D01*
X155489576Y-68138524D01*
X155141838Y-67291857D01*
X154763862Y-68138524D02*
X154658029Y-67291857D01*
X154605112Y-66868524D02*
X154673148Y-66929000D01*
X154620231Y-66989476D01*
X154552196Y-66929000D01*
X154605112Y-66868524D01*
X154620231Y-66989476D01*
X154234696Y-67291857D02*
X153750886Y-67291857D01*
X154000350Y-66868524D02*
X154136422Y-67957095D01*
X154091065Y-68078048D01*
X153977671Y-68138524D01*
X153856719Y-68138524D01*
X153433386Y-68138524D02*
X153274636Y-66868524D01*
X152889100Y-68138524D02*
X152805946Y-67473286D01*
X152851304Y-67352333D01*
X152964696Y-67291857D01*
X153146124Y-67291857D01*
X153274637Y-67352333D01*
X153342672Y-67412810D01*
X151135290Y-68138524D02*
X151248684Y-68078048D01*
X151294041Y-67957095D01*
X151157969Y-66868524D01*
X150470052Y-68138524D02*
X150583446Y-68078048D01*
X150636362Y-68017571D01*
X150681719Y-67896619D01*
X150636362Y-67533762D01*
X150560767Y-67412810D01*
X150492732Y-67352333D01*
X150364219Y-67291857D01*
X150182791Y-67291857D01*
X150069399Y-67352333D01*
X150016481Y-67412810D01*
X149971124Y-67533762D01*
X150016481Y-67896619D01*
X150092076Y-68017571D01*
X150160113Y-68078048D01*
X150288624Y-68138524D01*
X150470052Y-68138524D01*
X149517552Y-67291857D02*
X149321004Y-68138524D01*
X148912791Y-67291857D01*
X148043446Y-68078048D02*
X148171957Y-68138524D01*
X148413862Y-68138524D01*
X148527255Y-68078048D01*
X148572612Y-67957095D01*
X148512136Y-67473286D01*
X148436541Y-67352333D01*
X148308029Y-67291857D01*
X148066124Y-67291857D01*
X147952732Y-67352333D01*
X147907374Y-67473286D01*
X147922493Y-67594238D01*
X148542374Y-67715190D01*
X146554220Y-67291857D02*
X146070410Y-67291857D01*
X146478624Y-68138524D02*
X146342553Y-67049952D01*
X146266958Y-66929000D01*
X146138445Y-66868524D01*
X146017493Y-66868524D01*
X145752910Y-68138524D02*
X145647077Y-67291857D01*
X145677315Y-67533762D02*
X145601720Y-67412810D01*
X145533685Y-67352333D01*
X145405172Y-67291857D01*
X145284220Y-67291857D01*
X144785291Y-68138524D02*
X144898685Y-68078048D01*
X144951601Y-68017571D01*
X144996958Y-67896619D01*
X144951601Y-67533762D01*
X144876006Y-67412810D01*
X144807971Y-67352333D01*
X144679458Y-67291857D01*
X144498030Y-67291857D01*
X144384638Y-67352333D01*
X144331720Y-67412810D01*
X144286363Y-67533762D01*
X144331720Y-67896619D01*
X144407315Y-68017571D01*
X144475352Y-68078048D01*
X144603863Y-68138524D01*
X144785291Y-68138524D01*
X143817672Y-68138524D02*
X143711839Y-67291857D01*
X143726958Y-67412810D02*
X143658923Y-67352333D01*
X143530410Y-67291857D01*
X143348982Y-67291857D01*
X143235590Y-67352333D01*
X143190232Y-67473286D01*
X143273386Y-68138524D01*
X143190232Y-67473286D02*
X143114637Y-67352333D01*
X142986125Y-67291857D01*
X142804696Y-67291857D01*
X142691304Y-67352333D01*
X142645947Y-67473286D01*
X142729101Y-68138524D01*
X140756065Y-66868524D02*
X140514161Y-66868524D01*
X140400768Y-66929000D01*
X140294935Y-67049952D01*
X140264697Y-67291857D01*
X140317614Y-67715190D01*
X140408328Y-67957095D01*
X140544399Y-68078048D01*
X140672911Y-68138524D01*
X140914815Y-68138524D01*
X141028209Y-68078048D01*
X141134042Y-67957095D01*
X141164280Y-67715190D01*
X141111363Y-67291857D01*
X141020649Y-67049952D01*
X140884578Y-66929000D01*
X140756065Y-66868524D01*
X139879161Y-68078048D02*
X139705292Y-68138524D01*
X139402911Y-68138524D01*
X139274399Y-68078048D01*
X139206363Y-68017571D01*
X139130768Y-67896619D01*
X139115649Y-67775667D01*
X139161006Y-67654714D01*
X139213923Y-67594238D01*
X139327316Y-67533762D01*
X139561661Y-67473286D01*
X139675054Y-67412810D01*
X139727971Y-67352333D01*
X139773328Y-67231381D01*
X139758209Y-67110429D01*
X139682613Y-66989476D01*
X139614578Y-66929000D01*
X139486065Y-66868524D01*
X139183685Y-66868524D01*
X139009816Y-66929000D01*
X138616720Y-68138524D02*
X138457970Y-66868524D01*
X138533566Y-67473286D02*
X137807852Y-67473286D01*
X137891006Y-68138524D02*
X137732256Y-66868524D01*
X136318625Y-68138524D02*
X136159875Y-66868524D01*
X135676066Y-66868524D01*
X135562673Y-66929000D01*
X135509756Y-66989476D01*
X135464400Y-67110429D01*
X135487078Y-67291857D01*
X135562673Y-67412810D01*
X135630709Y-67473286D01*
X135759221Y-67533762D01*
X136243030Y-67533762D01*
X134504339Y-68138524D02*
X134421185Y-67473286D01*
X134466543Y-67352333D01*
X134579935Y-67291857D01*
X134821840Y-67291857D01*
X134950352Y-67352333D01*
X134496780Y-68078048D02*
X134625292Y-68138524D01*
X134927673Y-68138524D01*
X135041066Y-68078048D01*
X135086423Y-67957095D01*
X135071304Y-67836143D01*
X134995709Y-67715190D01*
X134867197Y-67654714D01*
X134564816Y-67654714D01*
X134436304Y-67594238D01*
X133899577Y-68138524D02*
X133793744Y-67291857D01*
X133823982Y-67533762D02*
X133748387Y-67412810D01*
X133680352Y-67352333D01*
X133551839Y-67291857D01*
X133430887Y-67291857D01*
X133113387Y-68138524D02*
X132954637Y-66868524D01*
X132931959Y-67654714D02*
X132629578Y-68138524D01*
X132523745Y-67291857D02*
X133068030Y-67775667D01*
X132070173Y-68017571D02*
X132017257Y-68078048D01*
X132085292Y-68138524D01*
X132138209Y-68078048D01*
X132070173Y-68017571D01*
X132085292Y-68138524D01*
X132024816Y-67654714D02*
X131994578Y-66929000D01*
X131926542Y-66868524D01*
X131873626Y-66929000D01*
X132024816Y-67654714D01*
X131926542Y-66868524D01*
D12*
X145798540Y-74589640D02*
X146057620Y-75150980D01*
X146057620Y-75150980D02*
X145519140Y-75669140D01*
X145519140Y-75669140D02*
X144998440Y-75399900D01*
X144998440Y-75399900D02*
X144719040Y-75559920D01*
X143278860Y-75539600D02*
X142948660Y-75349100D01*
X142948660Y-75349100D02*
X142509240Y-75679300D01*
X142509240Y-75679300D02*
X142036800Y-75189080D01*
X142036800Y-75189080D02*
X142318740Y-74709020D01*
X142318740Y-74709020D02*
X142128240Y-74239120D01*
X142128240Y-74239120D02*
X141518640Y-74051160D01*
X141518640Y-74051160D02*
X141518640Y-73370440D01*
X141518640Y-73370440D02*
X142077440Y-73230740D01*
X142077440Y-73230740D02*
X142278100Y-72659240D01*
X142278100Y-72659240D02*
X142008860Y-72189340D01*
X142008860Y-72189340D02*
X142478760Y-71678800D01*
X142478760Y-71678800D02*
X142996920Y-71940420D01*
X142996920Y-71940420D02*
X143466820Y-71739760D01*
X143466820Y-71739760D02*
X143637000Y-71198740D01*
X143637000Y-71198740D02*
X144327880Y-71180960D01*
X144327880Y-71180960D02*
X144538700Y-71729600D01*
X144538700Y-71729600D02*
X144957800Y-71899780D01*
X144957800Y-71899780D02*
X145508980Y-71630540D01*
X145508980Y-71630540D02*
X146027140Y-72158860D01*
X146027140Y-72158860D02*
X145778220Y-72699880D01*
X145778220Y-72699880D02*
X145948400Y-73179940D01*
X145948400Y-73179940D02*
X146497040Y-73279000D01*
X146497040Y-73279000D02*
X146507200Y-73980040D01*
X146507200Y-73980040D02*
X145948400Y-74180700D01*
X145948400Y-74180700D02*
X145808700Y-74579480D01*
X143667480Y-74559160D02*
X143367760Y-74409300D01*
X143367760Y-74409300D02*
X143167100Y-74211180D01*
X143167100Y-74211180D02*
X143017240Y-73809860D01*
X143017240Y-73809860D02*
X143017240Y-73411080D01*
X143017240Y-73411080D02*
X143167100Y-73060560D01*
X143167100Y-73060560D02*
X143619220Y-72710040D01*
X143619220Y-72710040D02*
X144068800Y-72659240D01*
X144068800Y-72659240D02*
X144467580Y-72760840D01*
X144467580Y-72760840D02*
X144868900Y-73108820D01*
X144868900Y-73108820D02*
X145018760Y-73560940D01*
X145018760Y-73560940D02*
X144967960Y-74058780D01*
X144967960Y-74058780D02*
X144719040Y-74361040D01*
X144719040Y-74361040D02*
X144368520Y-74559160D01*
X144368520Y-74559160D02*
X144719040Y-75559920D01*
X143667480Y-74559160D02*
X143268700Y-75559920D01*
M02*
